<svg width="1084" height="242" viewBox="0 0 1084 242" fill="none" xmlns="http://www.w3.org/2000/svg">
<g filter="url(#filter0_d_112_3)">
<path d="M116.989 78C120.456 85.0667 122.189 92.9333 122.189 101.6C122.189 110.267 120.456 118.133 116.989 125.2C113.522 132.133 109.056 137.667 103.589 141.8C92.5224 150.333 81.0557 154.6 69.1891 154.6H44.1891V177.2C44.1891 180.267 44.0557 182.6 43.7891 184.2C43.6557 185.667 43.0557 187.4 41.9891 189.4C40.1224 193 34.9224 194.8 26.3891 194.8C17.0557 194.8 11.5891 192.333 9.98906 187.4C9.18906 185.133 8.78906 181.667 8.78906 177V66C8.78906 62.9333 8.85573 60.6667 8.98906 59.2C9.25573 57.6 9.9224 55.8 10.9891 53.8C12.8557 50.2 18.0557 48.4 26.5891 48.4H69.3891C81.1224 48.4 92.5224 52.6667 103.589 61.2C109.056 65.3333 113.522 70.9333 116.989 78ZM69.3891 119.2C73.3891 119.2 77.3224 117.733 81.1891 114.8C85.0557 111.867 86.9891 107.467 86.9891 101.6C86.9891 95.7333 85.0557 91.3333 81.1891 88.4C77.3224 85.3333 73.3224 83.8 69.1891 83.8H44.1891V119.2H69.3891ZM131.25 107.2C131.25 104.133 131.317 101.867 131.45 100.4C131.717 98.8 132.317 97 133.25 95C135.117 91.5333 140.317 89.8 148.85 89.8C155.25 89.8 159.783 90.9333 162.45 93.2C164.717 95.0667 165.917 97.9333 166.05 101.8C166.183 103.133 166.25 105.067 166.25 107.6V177.6C166.25 180.667 166.117 183 165.85 184.6C165.717 186.067 165.117 187.8 164.05 189.8C162.317 193.267 157.183 195 148.65 195C140.25 195 135.117 193.2 133.25 189.6C132.317 187.6 131.717 185.867 131.45 184.4C131.317 182.933 131.25 180.6 131.25 177.4V107.2ZM164.05 70.2C163.117 72.0667 161.383 73.4 158.85 74.2C156.317 75 152.917 75.4 148.65 75.4C144.517 75.4 141.183 75 138.65 74.2C136.117 73.4 134.317 72 133.25 70C132.317 68 131.717 66.2667 131.45 64.8C131.317 63.2 131.25 60.8667 131.25 57.8C131.25 54.7333 131.317 52.4667 131.45 51C131.717 49.4 132.317 47.6667 133.25 45.8C135.117 42.2 140.317 40.4 148.85 40.4C157.25 40.4 162.317 42.2 164.05 45.8C165.117 47.8 165.717 49.6 165.85 51.2C166.117 52.6667 166.25 54.9333 166.25 58C166.25 61.0667 166.117 63.4 165.85 65C165.717 66.4667 165.117 68.2 164.05 70.2ZM273.827 156.6L277.427 154C281.96 151.333 285.16 150 287.027 150C291.16 150 295.627 153.733 300.427 161.2C303.36 165.867 304.827 169.6 304.827 172.4C304.827 175.2 303.893 177.533 302.027 179.4C300.293 181.267 298.227 182.933 295.827 184.4C293.427 185.867 291.093 187.267 288.827 188.6C286.693 189.933 282.227 191.667 275.427 193.8C268.627 195.933 262.027 197 255.627 197C249.36 197 242.96 196.2 236.427 194.6C230.027 192.867 223.36 190.067 216.427 186.2C209.627 182.2 203.493 177.4 198.027 171.8C192.56 166.067 188.027 158.8 184.427 150C180.96 141.067 179.227 131.4 179.227 121C179.227 110.6 180.96 101.2 184.427 92.8C187.893 84.2667 192.293 77.2667 197.627 71.8C203.093 66.2 209.293 61.5333 216.227 57.8C229.293 50.6 242.427 47 255.627 47C261.893 47 268.227 48 274.627 50C281.16 51.8667 286.093 53.8 289.427 55.8L294.227 58.6C296.627 60.0667 298.493 61.2667 299.827 62.2C303.293 65 305.027 68.2 305.027 71.8C305.027 75.2667 303.627 78.9333 300.827 82.8C295.627 90 290.96 93.6 286.827 93.6C284.427 93.6 281.027 92.1333 276.627 89.2C271.027 84.6667 263.56 82.4 254.227 82.4C245.56 82.4 237.027 85.4 228.627 91.4C224.627 94.3333 221.293 98.4667 218.627 103.8C215.96 109.133 214.627 115.2 214.627 122C214.627 128.667 215.96 134.667 218.627 140C221.293 145.333 224.693 149.533 228.827 152.6C236.96 158.467 245.427 161.4 254.227 161.4C258.36 161.4 262.227 160.867 265.827 159.8C269.56 158.733 272.227 157.667 273.827 156.6ZM386.769 46.6C406.502 46.6 423.635 53.7333 438.169 68C452.702 82.2667 459.969 100 459.969 121.2C459.969 142.267 453.035 160.267 439.169 175.2C425.302 190 408.235 197.4 387.969 197.4C367.702 197.4 350.435 190.067 336.169 175.4C322.035 160.733 314.969 143.267 314.969 123C314.969 111.933 316.969 101.6 320.969 92C324.969 82.2667 330.302 74.1333 336.969 67.6C343.635 61.0667 351.302 55.9333 359.969 52.2C368.635 48.4667 377.569 46.6 386.769 46.6ZM350.369 122C350.369 133.867 354.169 143.533 361.769 151C369.502 158.333 378.102 162 387.569 162C397.035 162 405.569 158.4 413.169 151.2C420.769 144 424.569 134.333 424.569 122.2C424.569 110.067 420.702 100.333 412.969 93C405.369 85.6667 396.835 82 387.369 82C377.902 82 369.369 85.7333 361.769 93.2C354.169 100.533 350.369 110.133 350.369 122ZM628.847 54C629.914 56 630.514 57.8 630.647 59.4C630.914 61 631.047 63.3333 631.047 66.4V177.4C631.047 186.6 628.514 192 623.447 193.6C620.914 194.4 617.714 194.8 613.847 194.8C609.98 194.8 606.914 194.467 604.647 193.8C602.38 193.133 600.647 192.333 599.447 191.4C598.247 190.467 597.314 189.133 596.647 187.4C595.98 185.133 595.647 181.667 595.647 177V110C592.314 114.133 587.447 120.733 581.047 129.8C574.647 138.733 570.58 144.333 568.847 146.6C567.114 148.867 565.914 150.467 565.247 151.4C564.58 152.2 562.914 153.4 560.247 155C557.714 156.467 554.914 157.2 551.847 157.2C548.914 157.2 546.18 156.533 543.647 155.2C541.247 153.733 539.514 152.333 538.447 151L536.847 148.8C534.18 145.467 528.914 138.4 521.047 127.6C513.18 116.667 508.914 110.8 508.247 110V177.4C508.247 180.467 508.114 182.8 507.847 184.4C507.714 185.867 507.114 187.533 506.047 189.4C504.047 193 498.847 194.8 490.447 194.8C482.314 194.8 477.247 193 475.247 189.4C474.18 187.533 473.514 185.8 473.247 184.2C473.114 182.6 473.047 180.2 473.047 177V66C473.047 62.9333 473.114 60.6667 473.247 59.2C473.514 57.6 474.18 55.8 475.247 53.8C477.247 50.3333 482.447 48.6 490.847 48.6C494.447 48.6 497.514 49.0667 500.047 50C502.714 50.8 504.447 51.6667 505.247 52.6L506.447 53.8L551.847 113.4C574.514 83.4 589.647 63.6 597.247 54C599.514 50.4 604.847 48.6 613.247 48.6C621.78 48.6 626.98 50.4 628.847 54ZM647.07 107.2C647.07 104.133 647.137 101.867 647.27 100.4C647.537 98.8 648.137 97 649.07 95C650.937 91.5333 656.137 89.8 664.67 89.8C671.07 89.8 675.604 90.9333 678.27 93.2C680.537 95.0667 681.737 97.9333 681.87 101.8C682.004 103.133 682.07 105.067 682.07 107.6V177.6C682.07 180.667 681.937 183 681.67 184.6C681.537 186.067 680.937 187.8 679.87 189.8C678.137 193.267 673.004 195 664.47 195C656.07 195 650.937 193.2 649.07 189.6C648.137 187.6 647.537 185.867 647.27 184.4C647.137 182.933 647.07 180.6 647.07 177.4V107.2ZM679.87 70.2C678.937 72.0667 677.204 73.4 674.67 74.2C672.137 75 668.737 75.4 664.47 75.4C660.337 75.4 657.004 75 654.47 74.2C651.937 73.4 650.137 72 649.07 70C648.137 68 647.537 66.2667 647.27 64.8C647.137 63.2 647.07 60.8667 647.07 57.8C647.07 54.7333 647.137 52.4667 647.27 51C647.537 49.4 648.137 47.6667 649.07 45.8C650.937 42.2 656.137 40.4 664.67 40.4C673.07 40.4 678.137 42.2 679.87 45.8C680.937 47.8 681.537 49.6 681.67 51.2C681.937 52.6667 682.07 54.9333 682.07 58C682.07 61.0667 681.937 63.4 681.67 65C681.537 66.4667 680.937 68.2 679.87 70.2ZM792.647 54.6C793.98 52.2 795.914 50.6 798.447 49.8C800.98 49 804.114 48.6 807.847 48.6C811.714 48.6 814.78 48.9333 817.047 49.6C819.447 50.2667 821.18 51.0667 822.247 52C823.447 52.9333 824.314 54.3333 824.847 56.2C825.647 58.3333 826.047 61.7333 826.047 66.4V177.4C826.047 180.6 825.914 182.933 825.647 184.4C825.514 185.867 824.914 187.6 823.847 189.6C821.98 193.2 816.78 195 808.247 195C803.047 195 799.447 194.6 797.447 193.8C795.447 193 793.78 191.733 792.447 190C762.447 150 742.714 123.867 733.247 111.6V177.4C733.247 180.6 733.114 182.933 732.847 184.4C732.714 185.867 732.114 187.6 731.047 189.6C729.18 193.2 723.98 195 715.447 195C707.18 195 702.114 193.2 700.247 189.6C699.18 187.6 698.514 185.8 698.247 184.2C698.114 182.6 698.047 180.267 698.047 177.2V65.6C698.047 60.5333 698.647 56.8667 699.847 54.6C701.18 52.2 703.114 50.6 705.647 49.8C708.18 49 711.447 48.6 715.447 48.6C719.447 48.6 722.58 49 724.847 49.8C727.247 50.4667 728.914 51.2667 729.847 52.2C730.38 52.6 731.914 54.3333 734.447 57.4C762.58 95.6667 781.38 120.933 790.847 133.2V65.6C790.847 60.5333 791.447 56.8667 792.647 54.6ZM859.792 48.2L896.792 48.4C916.126 48.4 933.126 55.4 947.792 69.4C962.459 83.2667 969.792 100.4 969.792 120.8C969.792 141.067 962.592 158.467 948.192 173C933.926 187.533 916.592 194.8 896.192 194.8H859.592C851.459 194.8 846.392 193.133 844.392 189.8C842.792 187 841.992 182.733 841.992 177V65.8C841.992 62.6 842.059 60.2667 842.192 58.8C842.459 57.3333 843.126 55.6 844.192 53.6C846.059 50 851.259 48.2 859.792 48.2ZM896.792 159.4C906.392 159.4 915.059 155.867 922.792 148.8C930.526 141.6 934.392 132.6 934.392 121.8C934.392 111 930.592 102 922.992 94.8C915.526 87.4667 906.726 83.8 896.592 83.8H877.392V159.4H896.792ZM976.809 174.4C973.343 170.133 971.609 166.333 971.609 163C971.609 159.533 974.476 155 980.209 149.4C983.543 146.2 987.076 144.6 990.809 144.6C994.543 144.6 999.743 147.933 1006.41 154.6C1008.28 156.867 1010.94 159.067 1014.41 161.2C1017.88 163.2 1021.08 164.2 1024.01 164.2C1036.41 164.2 1042.61 159.133 1042.61 149C1042.61 145.933 1040.88 143.4 1037.41 141.4C1034.08 139.267 1029.88 137.733 1024.81 136.8C1019.74 135.867 1014.28 134.4 1008.41 132.4C1002.54 130.267 997.076 127.8 992.009 125C986.943 122.2 982.676 117.8 979.209 111.8C975.876 105.667 974.209 98.3333 974.209 89.8C974.209 78.0667 978.543 67.8667 987.209 59.2C996.009 50.4 1007.94 46 1023.01 46C1031.01 46 1038.28 47.0667 1044.81 49.2C1051.48 51.2 1056.08 53.2667 1058.61 55.4L1063.61 59.2C1067.74 63.0667 1069.81 66.3333 1069.81 69C1069.81 71.6667 1068.21 75.3333 1065.01 80C1060.48 86.6667 1055.81 90 1051.01 90C1048.21 90 1044.74 88.6667 1040.61 86C1040.21 85.7333 1039.41 85.0667 1038.21 84C1037.14 82.9333 1036.14 82.0667 1035.21 81.4C1032.41 79.6667 1028.81 78.8 1024.41 78.8C1020.14 78.8 1016.54 79.8667 1013.61 82C1010.81 84 1009.41 86.8667 1009.41 90.6C1009.41 94.2 1011.08 97.1333 1014.41 99.4C1017.88 101.667 1022.14 103.2 1027.21 104C1032.28 104.8 1037.81 106.067 1043.81 107.8C1049.81 109.4 1055.34 111.4 1060.41 113.8C1065.48 116.2 1069.68 120.4 1073.01 126.4C1076.48 132.267 1078.21 139.533 1078.21 148.2C1078.21 156.867 1076.48 164.533 1073.01 171.2C1069.54 177.733 1065.01 182.8 1059.41 186.4C1048.61 193.467 1037.08 197 1024.81 197C1018.54 197 1012.61 196.267 1007.01 194.8C1001.41 193.2 996.876 191.267 993.409 189C986.343 184.733 981.409 180.6 978.609 176.6L976.809 174.4Z" fill="#F2F0FF"/>
</g>
<g filter="url(#filter1_d_112_3)">
<rect x="128.5" y="39" width="40" height="40" rx="15" fill="#FFD300"/>
</g>
<g filter="url(#filter2_d_112_3)">
<rect x="644.5" y="39" width="40" height="40" rx="15" fill="#FFD300"/>
</g>
<defs>
<filter id="filter0_d_112_3" x="4.78906" y="40.4" width="1077.42" height="165" filterUnits="userSpaceOnUse" color-interpolation-filters="sRGB">
<feFlood flood-opacity="0" result="BackgroundImageFix"/>
<feColorMatrix in="SourceAlpha" type="matrix" values="0 0 0 0 0 0 0 0 0 0 0 0 0 0 0 0 0 0 127 0" result="hardAlpha"/>
<feOffset dy="4"/>
<feGaussianBlur stdDeviation="2"/>
<feComposite in2="hardAlpha" operator="out"/>
<feColorMatrix type="matrix" values="0 0 0 0 0 0 0 0 0 0 0 0 0 0 0 0 0 0 0.25 0"/>
<feBlend mode="normal" in2="BackgroundImageFix" result="effect1_dropShadow_112_3"/>
<feBlend mode="normal" in="SourceGraphic" in2="effect1_dropShadow_112_3" result="shape"/>
</filter>
<filter id="filter1_d_112_3" x="124.5" y="39" width="48" height="48" filterUnits="userSpaceOnUse" color-interpolation-filters="sRGB">
<feFlood flood-opacity="0" result="BackgroundImageFix"/>
<feColorMatrix in="SourceAlpha" type="matrix" values="0 0 0 0 0 0 0 0 0 0 0 0 0 0 0 0 0 0 127 0" result="hardAlpha"/>
<feOffset dy="4"/>
<feGaussianBlur stdDeviation="2"/>
<feComposite in2="hardAlpha" operator="out"/>
<feColorMatrix type="matrix" values="0 0 0 0 0 0 0 0 0 0 0 0 0 0 0 0 0 0 0.25 0"/>
<feBlend mode="normal" in2="BackgroundImageFix" result="effect1_dropShadow_112_3"/>
<feBlend mode="normal" in="SourceGraphic" in2="effect1_dropShadow_112_3" result="shape"/>
</filter>
<filter id="filter2_d_112_3" x="640.5" y="39" width="48" height="48" filterUnits="userSpaceOnUse" color-interpolation-filters="sRGB">
<feFlood flood-opacity="0" result="BackgroundImageFix"/>
<feColorMatrix in="SourceAlpha" type="matrix" values="0 0 0 0 0 0 0 0 0 0 0 0 0 0 0 0 0 0 127 0" result="hardAlpha"/>
<feOffset dy="4"/>
<feGaussianBlur stdDeviation="2"/>
<feComposite in2="hardAlpha" operator="out"/>
<feColorMatrix type="matrix" values="0 0 0 0 0 0 0 0 0 0 0 0 0 0 0 0 0 0 0.25 0"/>
<feBlend mode="normal" in2="BackgroundImageFix" result="effect1_dropShadow_112_3"/>
<feBlend mode="normal" in="SourceGraphic" in2="effect1_dropShadow_112_3" result="shape"/>
</filter>
</defs>
</svg>
