<svg width="1989" height="1618" viewBox="0 0 1989 1618" fill="none" xmlns="http://www.w3.org/2000/svg">
<rect x="435.859" y="705.351" width="300" height="872" transform="rotate(27.4885 435.859 705.351)" fill="#8F198B"/>
<rect x="402.859" y="641.351" width="300" height="872" transform="rotate(27.4885 402.859 641.351)" fill="#4700D7"/>
<g filter="url(#filter0_d_223_137)">
<path d="M1008.32 282.92C1320.83 176.811 1632.76 308.786 1716.76 556.189C1800.76 803.592 1633.68 1098.21 1321.18 1204.32C1008.67 1310.43 696.739 1178.46 612.735 931.053C528.731 683.65 695.814 389.03 1008.32 282.92Z" stroke="#8F198B" stroke-width="100" shape-rendering="crispEdges"/>
</g>
<g filter="url(#filter1_d_223_137)">
<path d="M1008.39 322.904C1331.93 257.788 1624.34 428.712 1675.89 684.851C1727.44 940.991 1523.92 1211.72 1200.38 1276.84C876.837 1341.96 584.429 1171.03 532.878 914.895C481.327 658.755 684.846 388.021 1008.39 322.904Z" stroke="#4700D7" stroke-width="100" shape-rendering="crispEdges"/>
</g>
<defs>
<filter id="filter0_d_223_137" x="340.898" y="0.185822" width="1647.7" height="1494.87" filterUnits="userSpaceOnUse" color-interpolation-filters="sRGB">
<feFlood flood-opacity="0" result="BackgroundImageFix"/>
<feColorMatrix in="SourceAlpha" type="matrix" values="0 0 0 0 0 0 0 0 0 0 0 0 0 0 0 0 0 0 127 0" result="hardAlpha"/>
<feMorphology radius="100" operator="dilate" in="SourceAlpha" result="effect1_dropShadow_223_137"/>
<feOffset dy="4"/>
<feGaussianBlur stdDeviation="50"/>
<feComposite in2="hardAlpha" operator="out"/>
<feColorMatrix type="matrix" values="0 0 0 0 0.258824 0 0 0 0 0.0117647 0 0 0 0 0.784314 0 0 0 1 0"/>
<feBlend mode="normal" in2="BackgroundImageFix" result="effect1_dropShadow_223_137"/>
<feBlend mode="normal" in="SourceGraphic" in2="effect1_dropShadow_223_137" result="shape"/>
</filter>
<filter id="filter1_d_223_137" x="274.794" y="63.1413" width="1659.18" height="1481.46" filterUnits="userSpaceOnUse" color-interpolation-filters="sRGB">
<feFlood flood-opacity="0" result="BackgroundImageFix"/>
<feColorMatrix in="SourceAlpha" type="matrix" values="0 0 0 0 0 0 0 0 0 0 0 0 0 0 0 0 0 0 127 0" result="hardAlpha"/>
<feMorphology radius="100" operator="dilate" in="SourceAlpha" result="effect1_dropShadow_223_137"/>
<feOffset dy="4"/>
<feGaussianBlur stdDeviation="50"/>
<feComposite in2="hardAlpha" operator="out"/>
<feColorMatrix type="matrix" values="0 0 0 0 0.258824 0 0 0 0 0.0117647 0 0 0 0 0.784314 0 0 0 1 0"/>
<feBlend mode="normal" in2="BackgroundImageFix" result="effect1_dropShadow_223_137"/>
<feBlend mode="normal" in="SourceGraphic" in2="effect1_dropShadow_223_137" result="shape"/>
</filter>
</defs>
</svg>
